<svg id="Layer_1" data-name="Layer 1" xmlns="http://www.w3.org/2000/svg" viewBox="0 0 612 371.78"><defs><style>.cls-1{fill:#fff;}</style></defs><path class="cls-1" d="M363.35,344.26H274.56L252.37,305.8l-.69-1.19c3.46-4.65,6.69-9.5,9.73-14.46l4.61-8,8.54-14.76,22.22-38.46L319,267.35l21.69,37.57Z"/><path class="cls-1" d="M274.56,36.63,251.68,76.31l-21.5,37.19v.07l-44.41,76.91-21.19,36.61-1.85,3.23a76.83,76.83,0,0,1-65.75,37V113.53a76.88,76.88,0,0,1,65.72,37l.84,1.54h0l41.15-71.3A153.35,153.35,0,0,0,97,36.63H20.07V344.26H97a153.71,153.71,0,0,0,131.55-74.07l1.65-2.8v0l1.12-2,43.26-74.91,13.3-23.07L340.66,76l22.73-39.33Z"/><path class="cls-1" d="M363.34,97.22c5.4-6.93,10.09-12.94,14.79-19,10.47-13.4,20.9-26.84,31.5-40.14a7,7,0,0,1,4.75-2.49c35.08.31,72.44-5.81,107.34,3.42C589.12,56.87,610,135.26,571,189.17c-.71,1-1.45,2-1.92,2.58-.7.94,14,26.33,15.26,29.51,4.2,10.53,7.14,21.6,7.58,33,1,26.32-12.38,51.74-31.32,69.35C543,340,520.11,347,496.33,346.11c-28.77-1.12-57.62-1.25-86.5-1.47a6.19,6.19,0,0,1-4.32-1.89q-20.76-26.7-41.28-53.61c-.41-.54-.72-1.18-1.74-2.91,41.73,0,83.81,1.1,125.47-1.86,20.67-1.47,43.5-8.4,44.09-33,.39-16.21-20.9-29-34.73-31.72-32.62-6.39-71.27-1.25-104.58-1.65q-41.42-.48-82.82-1.18a6.52,6.52,0,0,1-4.44-2.33c-5.17-6.75-10-13.76-15.14-20.53-1.51-2-1.23-3.28.22-5.09,6.22-7.81,12.39-15.66,18.38-23.64a7.13,7.13,0,0,1,6.44-3.17c52.1.07,104.18,1.78,156.27,1.66,18.82-.05,39.14.54,51-17,9.32-13.79,5.75-30.17-7.79-39.63C495.43,93.54,470.3,97.36,448,97.36c-26.46,0-52.93-.14-79.39-.14Z"/></svg>