<svg id="Layer_1" data-name="Layer 1" xmlns="http://www.w3.org/2000/svg" viewBox="0 0 1429.38 371.78"><defs><style>.cls-1{fill:#3ad6ff;}</style></defs><path class="cls-1" d="M390.54,351.57h-95.4L271.3,310.25l-.75-1.28c3.72-5,7.19-10.21,10.46-15.54L286,284.8l9.18-15.87L319,227.61l23.84,41.32,23.3,40.37Z"/><path class="cls-1" d="M295.14,21,270.55,63.67l-23.09,40v.08l-47.72,82.64L177,225.67l-2,3.47a82.57,82.57,0,0,1-70.66,39.79V103.66a82.58,82.58,0,0,1,70.61,39.71l.91,1.65h0l44.21-76.6A164.7,164.7,0,0,0,104.33,21H21.7V351.57h82.63A165.17,165.17,0,0,0,245.68,272l1.78-3v0l1.19-2.11,46.49-80.48,14.29-24.79,56.73-98.26L390.58,21Z"/><path class="cls-1" d="M390.53,86.14c5.81-7.45,10.85-13.92,15.89-20.37,11.26-14.4,22.46-28.84,33.85-43.12A7.51,7.51,0,0,1,445.38,20c37.69.33,77.83-6.24,115.33,3.67C633.13,42.78,655.52,127,613.62,184.93c-.77,1.06-1.57,2.1-2.07,2.77-.75,1,15,28.29,16.39,31.71,4.52,11.32,7.68,23.21,8.15,35.44,1.08,28.28-13.3,55.59-33.65,74.51-18.91,17.59-43.46,25.19-69,24.2-30.92-1.2-61.91-1.34-92.94-1.58a6.66,6.66,0,0,1-4.64-2c-14.88-19.12-29.61-38.37-44.36-57.59-.45-.59-.77-1.27-1.88-3.13,44.85,0,90.06,1.18,134.82-2,22.21-1.58,46.74-9,47.37-35.41.42-17.41-22.46-31.16-37.31-34.07-35.05-6.87-76.58-1.35-112.37-1.77q-44.49-.53-89-1.27a7,7,0,0,1-4.78-2.51c-5.56-7.25-10.75-14.78-16.26-22.06-1.63-2.15-1.33-3.52.23-5.47,6.68-8.38,13.31-16.82,19.75-25.4a7.67,7.67,0,0,1,6.92-3.4c56,.07,111.93,1.91,167.91,1.78,20.22,0,42.05.58,54.81-18.28,10-14.82,6.17-32.42-8.37-42.58-20.89-14.6-47.89-10.5-71.85-10.5-28.44,0-56.87-.14-85.31-.14Z"/><path class="cls-1" d="M713.06,345.55q-17.12-7.49-26.89-21.24t-9.77-32.08h37.27a33.6,33.6,0,0,0,10.85,22.61q9.62,8.87,27,8.86,18,0,28.11-8.7t10.08-22.46q0-10.69-6.26-17.42a42,42,0,0,0-15.58-10.38,235.89,235.89,0,0,0-25.82-7.95q-20.77-5.49-33.76-11.15a55.64,55.64,0,0,1-22.15-17.57Q677,216.16,677,196.3q0-18.33,9.16-32.08t25.67-21.08q16.49-7.33,38.19-7.33,30.86,0,50.56,15.43t21.84,42.31H783.94q-.91-11.61-11-19.86t-26.58-8.25q-15,0-24.44,7.64t-9.47,22q0,9.78,5.95,16a42.19,42.19,0,0,0,15.13,9.93A235.5,235.5,0,0,0,758.58,229Q779.66,234.8,793,240.6a57.24,57.24,0,0,1,22.61,17.87q9.32,12.07,9.32,32.24a57.91,57.91,0,0,1-8.71,30.55q-8.7,14.37-25.36,23.07T751.55,353Q730.16,353,713.06,345.55Z"/><path class="cls-1" d="M865.05,220.89a75,75,0,0,1,29.18-30.39q18.63-10.69,42.77-10.7,30.56,0,50.56,14.51t27,41.4H977a39.73,39.73,0,0,0-14.66-19.55q-10.08-7-25.36-7-21.39,0-34.06,15.13t-12.68,42.31q0,27.19,12.68,42.47T937,324.31q30.24,0,40-26.58h37.58q-7.33,25.66-27.49,40.79T937,353.64q-24.13,0-42.77-10.84a76,76,0,0,1-29.18-30.55q-10.54-19.71-10.54-45.68T865.05,220.89Z"/><path class="cls-1" d="M1048.36,221.05a76.81,76.81,0,0,1,68.9-41.25q19.85,0,34.67,7.79t23.68,19.4V182.55h35.14V350.89h-35.14V325.84q-8.86,11.91-24.14,19.86t-34.82,7.94a73.94,73.94,0,0,1-39.72-11.15q-18-11.14-28.57-31.16T1037.82,266Q1037.82,240.61,1048.36,221.05Zm120.07,15.27a50.44,50.44,0,0,0-18.79-19.55,49.16,49.16,0,0,0-25.05-6.72,50,50,0,0,0-25,6.57,49.46,49.46,0,0,0-18.79,19.25q-7.18,12.67-7.18,30.09t7.18,30.55a50.58,50.58,0,0,0,18.94,20,48.51,48.51,0,0,0,24.9,6.88,49.16,49.16,0,0,0,25.05-6.72A50.15,50.15,0,0,0,1168.43,297q7.17-13,7.18-30.4T1168.43,236.32Z"/><path class="cls-1" d="M1377.1,188.05a58.7,58.7,0,0,1,24.59,24.44q8.86,16.2,8.86,39.11v99.29H1376v-94.1q0-22.61-11.31-34.67t-30.85-12.07q-19.56,0-31,12.07t-11.46,34.67v94.1h-34.83V182.55h34.83V201.8a57.66,57.66,0,0,1,21.84-16.19,69.83,69.83,0,0,1,28.26-5.81Q1361.36,179.8,1377.1,188.05Z"/></svg>