<?xml version="1.0" encoding="utf-8"?>
<!-- Generator: Adobe Illustrator 25.4.1, SVG Export Plug-In . SVG Version: 6.00 Build 0)  -->
<svg version="1.1" id="Layer_1" xmlns="http://www.w3.org/2000/svg" xmlns:xlink="http://www.w3.org/1999/xlink" x="0px" y="0px"
	 viewBox="0 0 120 24" style="enable-background:new 0 0 120 24;" xml:space="preserve">
<style type="text/css">
	.st0{fill:#FFFFFF;}
	.st1{fill:none;stroke:#000000;stroke-width:0.1894;stroke-miterlimit:10;}
</style>
<g>
	<circle cx="60" cy="14.4" r="1.7"/>
	<g>
		<path class="st0" d="M60.2,13.3h0.3v2.1h-0.3L60,14.6l-0.2-0.8v1.6h-0.3v-2.1h0.3l0.2,0.8l0.2,0.8V13.3z"/>
	</g>
	<path class="st1" d="M62,14.4c0,1.1-0.9,2-2,2s-2-0.9-2-2s0.9-2,2-2S62,13.3,62,14.4z"/>
</g>
<g>
	<g>
		<path d="M17.6,23.4c0.2-0.5,0.5-1.1,0.7-1.6c0.8-1.6,1.5-3.3,2.3-4.9c0.4-0.8,0.8-1.7,1.2-2.5c0.7-1.5,1.4-3,2.1-4.5
			C24.2,9,24.6,8.2,25,7.3c0.6-1.3-0.3-2.7-1.7-2.7c-2.1,0-4.1,0-6.2,0c-0.2,0-0.3,0.1-0.4,0.3c-0.7,1.5-1.4,3-2.1,4.5
			c-0.5,1.2-1,2.4-1.6,3.5c-0.1,0.1-0.1,0.2-0.2,0.4c-0.2-0.4-0.4-0.8-0.6-1.2c-0.5-1.2-1-2.4-1.6-3.5c-0.2-0.4,0-0.6,0.1-0.9
			c1-2.1,1.9-4.2,2.9-6.3c0.1-0.2,0.2-0.3,0.2-0.5c0.1-0.5,0.4-0.6,0.9-0.6c2.8,0,5.6,0,8.5,0c1.9,0,3.5,0.7,4.8,2.2
			c1.2,1.4,1.7,3.1,1.4,4.9c-0.1,0.7-0.4,1.4-0.7,2.1c-0.7,1.7-1.5,3.3-2.3,4.9c-0.6,1.3-1.2,2.6-1.8,3.9c-0.7,1.5-1.4,3-2.1,4.5
			c-0.1,0.2-0.1,0.3-0.2,0.5c-0.1,0.1-0.2,0.2-0.3,0.2C20.6,23.5,19.1,23.5,17.6,23.4C17.7,23.5,17.6,23.4,17.6,23.4z"/>
		<path d="M0,0.4c0.2,0,0.4,0,0.6,0c1.2,0,2.4,0,3.6,0c0.3,0,0.4,0.1,0.5,0.3C5.8,3.3,7,5.8,8.2,8.4c0.9,2,1.8,4,2.7,5.9
			c0.6,1.3,1.2,2.7,1.8,4c0,0.1,0.1,0.1,0.2,0.3c1.8-4,3.6-7.9,5.4-11.8c1.5,0,3,0,4.6,0c-0.2,0.4-0.4,0.9-0.6,1.3
			c-0.8,1.9-1.7,3.7-2.5,5.6c-0.7,1.6-1.5,3.3-2.3,4.9c-0.7,1.5-1.4,3-2,4.5c-0.1,0.3-0.3,0.4-0.6,0.4c-1.3,0-2.5,0-3.8,0
			c-0.7,0-0.7,0-0.9-0.6c-0.5-1.1-0.9-2.1-1.4-3.2C8.2,18.3,7.6,17,7,15.6c-0.6-1.3-1.2-2.7-1.8-4c-0.7-1.5-1.4-3-2-4.5
			C2.6,5.8,2,4.5,1.4,3.1C0.8,2.2,0.4,1.4,0,0.4C0,0.5,0,0.5,0,0.4z"/>
	</g>
	<g>
		<path d="M40.1,5h2.3l-3,18.2h-2.8L33.6,5H36l1.1,7.5l0.9,7.4l0.9-7.4L40.1,5z"/>
		<path d="M52.4,11.9c0,1.8-0.5,3-1.9,3.7l1.9,7.6H50L48.3,16c-0.2,0-0.3,0-0.5,0h-1.2v7.1h-2.3V5h3.5c3.1,0,4.6,1.8,4.6,4.3
			L52.4,11.9z M46.5,14.1h1.2c1.5,0,2.3-0.7,2.3-2.2V9.2C50,7.8,49.2,7,47.7,7h-1.2V14.1z"/>
		<path d="M62.7,10.7h-2.3V9.1c0-1.6-0.7-2.3-1.8-2.3c-1.2,0-1.9,0.7-1.9,2.3v10c0,1.6,0.7,2.3,1.9,2.3c1.1,0,1.8-0.7,1.8-2.3v-1.6
			h2.3V19c0,2.6-1.6,4.4-4.2,4.4c-2.6,0-4.2-1.8-4.2-4.4V9c0-2.6,1.5-4.4,4.2-4.4c2.6,0,4.2,1.8,4.2,4.4V10.7z"/>
		<path d="M77.6,10.7h-2.3V9.1c0-1.6-0.7-2.3-1.8-2.3c-1.2,0-1.9,0.7-1.9,2.3v10c0,1.6,0.7,2.3,1.9,2.3c1.1,0,1.8-0.7,1.8-2.3v-1.6
			h2.3V19c0,2.6-1.6,4.4-4.2,4.4s-4.2-1.8-4.2-4.4V9c0-2.6,1.5-4.4,4.2-4.4c2.6,0,4.2,1.8,4.2,4.4V10.7z"/>
		<path d="M87,13.4v9.8h-2.1v-9.5c0-1.2-0.6-1.7-1.5-1.7c-1,0-1.7,0.7-1.7,2.2v9h-2.1V5h2.1v5.8c0.6-0.6,1.3-0.9,2.2-0.9
			C86,9.9,87,11.2,87,13.4z"/>
		<path d="M96.3,13.7v9.5h-1.7L94.5,22c-0.6,0.9-1.4,1.4-2.6,1.4c-2.1,0-3.2-1.4-3.2-3.4v-0.7c0-2.3,1.4-3.4,4-3.6l1.5-0.1v-2
			c0-1.2-0.7-1.8-1.6-1.8s-1.7,0.6-1.7,1.8v0.6H89v-0.6c0-2.4,1.6-3.8,3.7-3.8C94.7,9.9,96.3,11.3,96.3,13.7z M94.1,19.1v-1.6
			l-1.5,0.1c-1.3,0.1-1.8,0.8-1.8,1.7v0.3c0,1.2,0.7,1.7,1.6,1.7C93.5,21.4,94.1,20.6,94.1,19.1z"/>
		<path d="M98.3,5h2.1v2.6h-2.1V5z M98.4,10.2h2.1v13h-2.1V10.2z"/>
		<path d="M110.3,13.4v9.8h-2.1v-9.5c0-1.2-0.6-1.7-1.5-1.7c-1,0-1.7,0.7-1.7,2.2v9h-2.1v-13h1.7l0.1,1.1c0.6-0.9,1.5-1.4,2.6-1.4
			C109.3,9.9,110.3,11.2,110.3,13.4z"/>
	</g>
</g>
</svg>
