<svg id="Layer_1" data-name="Layer 1" xmlns="http://www.w3.org/2000/svg" viewBox="0 0 116.19 16.24"><defs><style>.cls-1{fill:#191818;}</style></defs><rect class="cls-1" x="1.15" y="15.75" width="14.8" height="0.49" rx="0.25"/><path class="cls-1" d="M19.07,3.88a1,1,0,0,0-.9,1.51l-6,10.34-.67-1L17.26,4.9H16l-3.86,6.6-.57-1,1.27-2.29H13a1,1,0,1,0-1-1,1,1,0,0,0,.11.46L11,9.45,8.22,4.69H7.13l4.42,7.81-.59,1L7.54,7.75a1,1,0,0,0,.17-.56,1,1,0,0,0-2,0,1,1,0,0,0,.93,1l5,8.62-.64,1L3.85,5.34A.92.92,0,0,0,4,4.9a1,1,0,1,0-1,1h0l8,13.94L19.07,5.93a1,1,0,1,0,0-2Z" transform="translate(-1.91 -3.88)"/><path d="M34.84,7.58l-4.27,12H26.9l-4.28-12h3.13l3,9.1,3-9.1Z" transform="translate(-1.91 -3.88)"/><path d="M42.21,19.63,39.7,15.08H39v4.55H36.06v-12H41a5.32,5.32,0,0,1,2.43.5,3.38,3.38,0,0,1,1.5,1.36,3.83,3.83,0,0,1,.5,1.93,3.62,3.62,0,0,1-.68,2.15,3.68,3.68,0,0,1-2,1.34l2.78,4.77ZM39,13h1.82A1.69,1.69,0,0,0,42,12.61a1.51,1.51,0,0,0,.4-1.12,1.43,1.43,0,0,0-.4-1.08A1.69,1.69,0,0,0,40.82,10H39Z" transform="translate(-1.91 -3.88)"/><path d="M47.53,10.4a5.5,5.5,0,0,1,2.15-2.18,6.27,6.27,0,0,1,3.13-.78,6,6,0,0,1,3.68,1.13,5.44,5.44,0,0,1,2,3.09H55.3a2.66,2.66,0,0,0-1-1.15,2.89,2.89,0,0,0-1.5-.39,2.81,2.81,0,0,0-2.2.94,3.66,3.66,0,0,0-.84,2.53,3.65,3.65,0,0,0,.84,2.52,2.81,2.81,0,0,0,2.2.94,2.89,2.89,0,0,0,1.5-.39,2.61,2.61,0,0,0,1-1.15h3.23a5.39,5.39,0,0,1-2,3.08,6,6,0,0,1-3.68,1.12,6.27,6.27,0,0,1-3.13-.78,5.47,5.47,0,0,1-2.15-2.17,6.36,6.36,0,0,1-.77-3.17A6.44,6.44,0,0,1,47.53,10.4Z" transform="translate(-1.91 -3.88)"/><path d="M64.25,10.4A5.5,5.5,0,0,1,66.4,8.22a6.27,6.27,0,0,1,3.13-.78,6.05,6.05,0,0,1,3.68,1.13,5.44,5.44,0,0,1,2,3.09H72a2.66,2.66,0,0,0-1-1.15,2.89,2.89,0,0,0-1.5-.39,2.81,2.81,0,0,0-2.2.94,3.66,3.66,0,0,0-.84,2.53,3.65,3.65,0,0,0,.84,2.52,2.81,2.81,0,0,0,2.2.94,2.89,2.89,0,0,0,1.5-.39,2.61,2.61,0,0,0,1-1.15h3.23a5.39,5.39,0,0,1-2,3.08,6,6,0,0,1-3.68,1.12,6.27,6.27,0,0,1-3.13-.78,5.47,5.47,0,0,1-2.15-2.17,6.37,6.37,0,0,1-.78-3.17A6.44,6.44,0,0,1,64.25,10.4Z" transform="translate(-1.91 -3.88)"/><path d="M87.49,7.58v12H84.55v-5H80v5H77.05v-12H80V12.3h4.56V7.58Z" transform="translate(-1.91 -3.88)"/><path d="M97.1,17.5H92.6l-.72,2.13H88.81l4.36-12h3.4l4.36,12H97.82Zm-.75-2.27-1.5-4.41-1.47,4.41Z" transform="translate(-1.91 -3.88)"/><path d="M105.19,7.58v12h-2.94v-12Z" transform="translate(-1.91 -3.88)"/><path d="M118.09,19.63h-2.93l-4.91-7.43v7.43h-2.94v-12h2.94l4.91,7.47V7.58h2.93Z" transform="translate(-1.91 -3.88)"/></svg>