<svg id="Layer_1" data-name="Layer 1" xmlns="http://www.w3.org/2000/svg" xmlns:xlink="http://www.w3.org/1999/xlink" viewBox="0 0 478.02 131.74"><defs><style>.cls-1{fill:#fff;}.cls-2{fill:url(#linear-gradient);}.cls-3{fill:url(#linear-gradient-2);}.cls-4{fill:url(#linear-gradient-3);}</style><linearGradient id="linear-gradient" x1="60.96" y1="68.15" x2="155.09" y2="68.15" gradientTransform="matrix(1, 0, 0, -1, 0, 134)" gradientUnits="userSpaceOnUse"><stop offset="0" stop-color="#24a3f2"/><stop offset="1" stop-color="#21e8fe"/></linearGradient><linearGradient id="linear-gradient-2" x1="8.42" y1="68.03" x2="122.09" y2="68.03" xlink:href="#linear-gradient"/><linearGradient id="linear-gradient-3" x1="270.25" y1="40.36" x2="270.25" y2="55.75" xlink:href="#linear-gradient"/></defs><path class="cls-1" d="M323.22,72.51h-9.34V66.05c0-6.36-2.7-9.2-7.3-9.2s-7.4,2.84-7.4,9.2v39.81c0,6.37,2.71,9.2,7.4,9.2s7.3-2.83,7.3-9.2V99.4h9.34v6.46c0,10.55-6.27,17.69-16.64,17.69-10.55,0-16.74-7.39-16.74-17.69V66.05c0-10.3,6.19-17.68,16.74-17.68,10.37,0,16.64,7.13,16.64,17.68Z"/><path class="cls-1" d="M355.69,49.55H365v72.81h-9.34V89H341.4v33.38h-9.33V49.55h9.33v31.2h14.29Z"/><path class="cls-1" d="M398,122.36l-2.09-13.64H383.6l-2.08,13.64h-9.26l12-72.83h11l12,72.83Zm-13.18-21.71h9.86l-1.26-8.27-3.67-29.45-3.66,29.44Z"/><path class="cls-1" d="M414.45,49.55h9.34v72.81h-9.34Z"/><path class="cls-1" d="M460.39,49.55h9.21v72.81h-11l-8.21-27.79L444.11,67.5v54.86H435V49.55H446l8.14,27.57,6.21,26.56Z"/><path class="cls-2" d="M96.11,123.29l3.7-8.11q5.61-12.3,11.23-24.56c1.92-4.16,3.92-8.29,5.82-12.47,3.43-7.52,6.81-15.08,10.23-22.6,1.88-4.13,3.93-8.18,5.7-12.35,2.83-6.68-1.63-13.63-8.27-13.69-10.33-.08-20.66,0-31-.05-1.06,0-1.47.39-1.9,1.37-3.37,7.52-6.87,15-10.28,22.47C78.7,59.14,76.12,65,73.49,70.87A22.41,22.41,0,0,1,72.28,73c-1-2.15-2-4.11-2.89-6.1-2.66-5.9-5.19-11.9-8-17.66-1-2,.15-3.13.72-4.4,4.75-10.57,9.64-21.07,14.49-31.6a11.19,11.19,0,0,0,1-2.27c.52-2.39,2-2.79,4.28-2.77,14.07.1,28.14,0,42.22.08,9.45.08,17.5,3.57,23.7,10.84a29.71,29.71,0,0,1,6.92,24.48c-.52,3.6-2.11,7.1-3.59,10.48-3.63,8.24-7.47,16.37-11.24,24.54q-4.48,9.69-9,19.39-5.14,11.1-10.25,22.26a15.83,15.83,0,0,1-1.14,2.39,2,2,0,0,1-1.35.86H96.55C96.45,123.52,96.35,123.42,96.11,123.29Z"/><path class="cls-3" d="M8.43,8.43h3c5.93,0,11.87.06,17.81,0A2.29,2.29,0,0,1,31.69,10Q40.45,29.26,49.2,48.6q6.72,14.81,13.53,29.56c3,6.6,5.94,13.22,8.91,19.82.16.36.41.69.81,1.36l26.89-59h22.75c-1,2.22-1.83,4.3-2.76,6.36q-6.33,14-12.7,28c-3.74,8.2-7.53,16.38-11.26,24.59q-5.07,11.17-10.07,22.4a2.63,2.63,0,0,1-2.79,1.84c-6.35-.12-12.7,0-19.06,0-3.36,0-3.4-.08-4.68-3q-3.44-8-7-15.84c-3-6.77-6.11-13.52-9.18-20.28S36.49,71,33.45,64.28Q28.36,53,23.3,41.8q-4.49-9.9-9-19.78c-1.93-4.24-3.89-8.46-5.82-12.7A3.35,3.35,0,0,1,8.43,8.43Z"/><path class="cls-1" d="M270.24,74.92a11,11,0,1,0,11,11h0A11,11,0,0,0,270.24,74.92Zm0,21.31A10.28,10.28,0,1,1,280.53,86a10.27,10.27,0,0,1-10.29,10.28Z"/><circle class="cls-1" cx="270.24" cy="85.95" r="9.37"/><path class="cls-4" d="M272,78.25h1.94V93.64h-2.32l-1.74-5.87-1.31-5.72V93.64H266.6V78.25h2.34l1.72,5.83L272,89.69Z"/><path class="cls-1" d="M184.46,48.37H194l-12.37,75.18H170.26L157.89,48.37h9.56l4.72,30.94,3.77,30.4,3.79-30.4Z"/><path class="cls-1" d="M235.15,77.17c0,7.32-1.93,12.51-7.85,15.08l7.77,31.3h-9.65l-7.17-29.5c-.7,0-1.43,0-2.19,0h-5v29.45h-9.63V48.38h14.59c12.64,0,19.1,7.43,19.1,17.71Zm-24.05,9h5c6.28,0,9.47-3.07,9.47-9V65.92c0-5.87-3.21-9-9.47-9h-5Z"/><path class="cls-1" d="M275.25,72.51h-9.34V66.05c0-6.36-2.7-9.2-7.3-9.2s-7.4,2.84-7.4,9.2v39.82c0,6.36,2.71,9.2,7.4,9.2s7.3-2.84,7.3-9.2V99.41h9.34v6.46c0,10.54-6.27,17.68-16.64,17.68-10.54,0-16.74-7.39-16.74-17.68V66.05c0-10.3,6.2-17.68,16.74-17.68,10.37,0,16.64,7.13,16.64,17.67Z"/></svg>