<svg id="Layer_1" data-name="Layer 1" xmlns="http://www.w3.org/2000/svg" xmlns:xlink="http://www.w3.org/1999/xlink" viewBox="0 0 538.19 131.74"><defs><style>.cls-1{fill:#fff;}.cls-2{fill:url(#linear-gradient);}.cls-3{fill:url(#linear-gradient-2);}</style><linearGradient id="linear-gradient" x1="57.77" y1="65.87" x2="151.83" y2="65.87" gradientUnits="userSpaceOnUse"><stop offset="0" stop-color="#24a3f2"/><stop offset="1" stop-color="#21e8fe"/></linearGradient><linearGradient id="linear-gradient-2" x1="5.23" y1="65.95" x2="118.85" y2="65.95" xlink:href="#linear-gradient"/></defs><path class="cls-1" d="M190.82,49.55h9.26l-12,72.83h-11l-12-72.83h9.26l4.58,30L182.57,109l3.67-29.45Z"/><path class="cls-1" d="M239.94,77.44c0,7.09-1.86,12.12-7.61,14.61l7.53,30.31h-9.35l-6.95-28.58c-.68,0-1.39,0-2.12,0h-4.8v28.53H207.3V49.55h14.14c12.25,0,18.51,7.19,18.51,17.16Zm-23.31,8.73h4.81c6.08,0,9.17-3,9.17-8.73V66.54c0-5.69-3.11-8.67-9.17-8.67h-4.81Z"/><path class="cls-1" d="M281.25,72.51h-9.34V66.05c0-6.36-2.7-9.2-7.3-9.2s-7.4,2.84-7.4,9.2v39.81c0,6.37,2.71,9.2,7.4,9.2s7.3-2.83,7.3-9.2V99.4h9.34v6.46c0,10.55-6.27,17.69-16.64,17.69-10.55,0-16.74-7.39-16.74-17.69V66.05c0-10.3,6.19-17.68,16.74-17.68,10.37,0,16.64,7.13,16.64,17.68Z"/><path class="cls-1" d="M315.55,49.55h9.17v72.81h-11l-8.2-27.79L299.27,67.5v54.86H290.1V49.55h11.1l8.14,27.57,6.21,26.56Z"/><path class="cls-1" d="M386.62,72.51h-9.34V66.05c0-6.36-2.7-9.2-7.3-9.2s-7.4,2.84-7.4,9.2v39.81c0,6.37,2.71,9.2,7.4,9.2s7.3-2.83,7.3-9.2V99.4h9.34v6.46c0,10.55-6.27,17.69-16.64,17.69-10.55,0-16.74-7.39-16.74-17.69V66.05c0-10.3,6.19-17.68,16.74-17.68,10.37,0,16.64,7.13,16.64,17.68Z"/><path class="cls-1" d="M419.09,49.55h9.34v72.81h-9.34V89H404.8v33.38h-9.33V49.55h9.33v31.2h14.29Z"/><path class="cls-1" d="M461.37,122.36l-2.09-13.64H447l-2.08,13.64h-9.26l12-72.83h11l12,72.83Zm-13.18-21.71h9.86l-1.26-8.27-3.67-29.45-3.66,29.44Z"/><path class="cls-1" d="M477.85,49.55h9.34v72.81h-9.34Z"/><path class="cls-1" d="M523.79,49.55H533v72.81h-11l-8.21-27.79L507.51,67.5v54.86h-9.16V49.55h11.09l8.14,27.57,6.21,26.56Z"/><path class="cls-2" d="M92.91,123.29l3.7-8.11q5.61-12.29,11.23-24.56c1.92-4.16,3.92-8.29,5.82-12.47,3.43-7.52,6.81-15.08,10.23-22.6,1.88-4.13,3.93-8.18,5.7-12.35,2.83-6.68-1.63-13.63-8.27-13.69-10.33-.08-20.66,0-31-.05-1.06,0-1.47.39-1.9,1.37-3.37,7.52-6.87,15-10.28,22.47C75.5,59.14,72.92,65,70.29,70.87A23,23,0,0,1,69.08,73c-1-2.15-2-4.11-2.89-6.1C63.53,61,61,55,58.15,49.24c-1-2,.15-3.13.72-4.4,4.75-10.57,9.64-21.07,14.49-31.6a11.62,11.62,0,0,0,1-2.27c.52-2.39,2-2.79,4.28-2.77,14.07.1,28.14,0,42.22.08,9.45.08,17.5,3.57,23.7,10.84a29.75,29.75,0,0,1,6.92,24.48c-.52,3.6-2.11,7.1-3.59,10.48-3.63,8.24-7.47,16.37-11.24,24.54q-4.49,9.7-9,19.39-5.15,11.11-10.25,22.26a15.92,15.92,0,0,1-1.14,2.39,2,2,0,0,1-1.35.86c-7.19,0-14.37,0-21.56,0C93.25,123.52,93.15,123.42,92.91,123.29Z"/><path class="cls-3" d="M5.23,8.43h3c5.93,0,11.87.06,17.81,0a2.3,2.3,0,0,1,2.45,1.54Q37.24,29.27,46,48.6c4.48,9.87,9,19.7,13.53,29.56,3,6.6,5.94,13.22,8.91,19.82.16.36.41.69.81,1.36l26.89-59h22.75c-1,2.22-1.83,4.3-2.76,6.36q-6.33,14-12.7,28c-3.74,8.2-7.53,16.38-11.26,24.59q-5.07,11.18-10.07,22.4a2.63,2.63,0,0,1-2.79,1.84c-6.35-.12-12.7,0-19.06,0-3.36,0-3.4-.08-4.68-3q-3.44-8-7-15.84c-3-6.77-6.11-13.52-9.18-20.28s-6.1-13.41-9.14-20.13Q25.16,53,20.1,41.8q-4.49-9.9-9-19.78c-1.93-4.24-3.89-8.46-5.82-12.7A3,3,0,0,1,5.23,8.43Z"/></svg>